HIERARCHY
ROOT joint_Root
{
	OFFSET 0.0 0.0 0.0
	CHANNELS 6 Xposition Yposition Zposition Zrotation Xrotation Yrotation 
	JOINT Hips
	{
		OFFSET 4.5925 91.4895 -427.239
		CHANNELS 6 Xposition Yposition Zposition Zrotation Xrotation Yrotation 
		JOINT Spine
		{
			OFFSET 15.7357 0.0 0.0
			CHANNELS 6 Xposition Yposition Zposition Zrotation Xrotation Yrotation 
			JOINT Chest
			{
				OFFSET 8.98455 -0.406207 0.0
				CHANNELS 6 Xposition Yposition Zposition Zrotation Xrotation Yrotation 
				JOINT Neck
				{
					OFFSET 16.3773 0.0 0.0
					CHANNELS 6 Xposition Yposition Zposition Zrotation Xrotation Yrotation 
					JOINT Head
					{
						OFFSET 6.45672 0.0 0.0
						CHANNELS 6 Xposition Yposition Zposition Zrotation Xrotation Yrotation 
						End Site
						{
							OFFSET 0.0 0.0 0.0
						}
					}
				}
				JOINT Shoulder_L
				{
					OFFSET 12.9942 -0.242716 4.98039
					CHANNELS 6 Xposition Yposition Zposition Zrotation Xrotation Yrotation 
					JOINT UpperArm_L
					{
						OFFSET 5.34809 0.0 0.0
						CHANNELS 6 Xposition Yposition Zposition Zrotation Xrotation Yrotation 
						JOINT LowerArm_L
						{
							OFFSET 24.3286 1.87007e-05 0.0
							CHANNELS 6 Xposition Yposition Zposition Zrotation Xrotation Yrotation 
							JOINT Hand_L
							{
								OFFSET 22.2916 0.0 0.0
								CHANNELS 6 Xposition Yposition Zposition Zrotation Xrotation Yrotation 
								End Site
								{
									OFFSET 0.0 0.0 0.0
								}
							}
						}
					}
				}
				JOINT Shoulder_R
				{
					OFFSET 12.9945 -0.242716 -4.98039
					CHANNELS 6 Xposition Yposition Zposition Zrotation Xrotation Yrotation 
					JOINT UpperArm_R
					{
						OFFSET -5.34813 0.0 0.0
						CHANNELS 6 Xposition Yposition Zposition Zrotation Xrotation Yrotation 
						JOINT LowerArm_R
						{
							OFFSET -24.3289 0.000322201 0.0
							CHANNELS 6 Xposition Yposition Zposition Zrotation Xrotation Yrotation 
							JOINT Hand_R
							{
								OFFSET -22.2915 -0.000108084 0.0
								CHANNELS 6 Xposition Yposition Zposition Zrotation Xrotation Yrotation 
								End Site
								{
									OFFSET 0.0 0.0 0.0
								}
							}
						}
					}
				}
			}
		}
		JOINT UpperLeg_L
		{
			OFFSET -2.19248 -6.46944 0.0
			CHANNELS 6 Xposition Yposition Zposition Zrotation Xrotation Yrotation 
			JOINT LowerLeg_L
			{
				OFFSET 39.0811 0.0 -1.23785e-05
				CHANNELS 6 Xposition Yposition Zposition Zrotation Xrotation Yrotation 
				JOINT Foot_L
				{
					OFFSET 40.9854 0.0 -1.26872e-05
					CHANNELS 6 Xposition Yposition Zposition Zrotation Xrotation Yrotation 
					JOINT Toes_L
					{
						OFFSET 11.7543 0.0 0.0
						CHANNELS 6 Xposition Yposition Zposition Zrotation Xrotation Yrotation 
						End Site
						{
							OFFSET 0.0 0.0 0.0
						}
					}
				}
			}
		}
		JOINT UpperLeg_R
		{
			OFFSET -2.19251 6.46944 0.0
			CHANNELS 6 Xposition Yposition Zposition Zrotation Xrotation Yrotation 
			JOINT LowerLeg_R
			{
				OFFSET -39.0811 -0.00228153 -0.0401928
				CHANNELS 6 Xposition Yposition Zposition Zrotation Xrotation Yrotation 
				JOINT Foot_R
				{
					OFFSET -40.9854 0.0 0.0
					CHANNELS 6 Xposition Yposition Zposition Zrotation Xrotation Yrotation 
					JOINT Toes_R
					{
						OFFSET -11.7543 0.0 0.0
						CHANNELS 6 Xposition Yposition Zposition Zrotation Xrotation Yrotation 
						End Site
						{
							OFFSET 0.0 0.0 0.0
						}
					}
				}
			}
		}
	}
}
MOTION
Frames:	7
Frame Time:	0.0333333
0.000000 0.000000 0.000000 0.000000 0.000000 -0.000000 -1.287890 90.726200 2.452000 89.722500 -1.438300 11.201500 15.735700 0.000005 -0.000001 88.162200 82.675200 -88.115000 8.984550 -0.406207 -0.000000 6.876360 -0.468620 0.122505 16.377300 -0.000001 -0.000001 5.448410 -5.766730 1.718270 6.456720 -0.000001 -0.000000 -12.092800 -5.407180 0.943809 12.994200 -0.242716 4.980390 -91.863700 7.280080 -75.598500 5.348090 -0.000007 -0.000001 -51.843700 50.736300 -29.947500 24.328600 0.000019 0.000005 11.693900 18.896400 -32.582400 22.291600 -0.000001 0.000005 10.113000 5.288620 0.389089 12.994500 -0.242716 -4.980390 88.576800 10.378000 -82.147500 -5.348130 -0.000001 -0.000004 -58.277900 47.612100 -20.966700 -24.328900 0.000322 -0.000009 2.431990 3.765960 -32.899700 -22.291500 -0.000108 -0.000004 16.405300 5.441730 -4.346110 -2.192480 -6.469440 -0.000000 -174.155000 -10.667800 3.284140 39.081100 -0.000007 -0.000012 -0.158648 0.279275 29.599800 40.985400 -0.000006 -0.000013 -0.315924 5.737010 -71.412200 11.754300 -0.000000 0.000003 -0.000073 -0.000781 -16.607700 -2.192510 6.469440 -0.000001 172.963000 20.529300 -174.766000 -39.081100 -0.002282 -0.040193 -0.184535 0.340398 28.891100 -40.985400 0.000008 0.000006 2.487340 11.344400 -72.076200 -11.754300 -0.000006 -0.000006 -0.002988 -0.040470 -18.218900
0.000000 0.000000 0.000000 0.000000 0.000000 -0.000000 -1.282150 90.727400 2.380800 89.755400 -1.260480 11.362500 15.735700 0.000005 -0.000001 87.799200 82.673600 -87.773900 8.984550 -0.406207 -0.000000 6.876270 -0.561010 0.084256 16.377300 -0.000001 -0.000001 6.153830 -6.003680 1.644390 6.456720 -0.000001 -0.000000 -10.941200 -5.650010 0.720244 12.994200 -0.242716 4.980390 -91.899600 7.282820 -75.338600 5.348090 -0.000007 -0.000001 -50.912600 49.198800 -30.264800 24.328600 0.000019 0.000005 12.679700 19.938600 -33.415000 22.291600 -0.000001 0.000005 10.195100 5.293500 0.254120 12.994500 -0.242716 -4.980390 88.526600 10.227700 -81.757300 -5.348130 -0.000001 -0.000004 -57.352100 46.212200 -21.261300 -24.328900 0.000322 -0.000009 2.499710 3.751230 -33.726000 -22.291500 -0.000108 -0.000004 16.941600 5.448050 -4.569630 -2.192480 -6.469440 -0.000000 -174.174000 -10.582800 3.359720 39.081100 -0.000007 -0.000012 -0.160057 0.281500 29.622100 40.985400 -0.000006 -0.000013 -0.285847 5.826930 -71.360300 11.754300 -0.000000 0.000003 -0.000080 -0.000854 -16.610500 -2.192510 6.469440 -0.000001 172.858000 20.612100 -174.638000 -39.081100 -0.002282 -0.040193 -0.183960 0.338793 28.931400 -40.985400 0.000008 0.000006 2.477870 11.294800 -72.061100 -11.754300 -0.000006 -0.000006 -0.003021 -0.040841 -18.234100
0.000000 0.000000 0.000000 0.000000 0.000000 -0.000000 -1.264120 90.725700 2.260170 89.786500 -1.096900 11.533300 15.735700 0.000005 -0.000001 87.431300 82.694500 -87.425400 8.984550 -0.406207 -0.000000 6.830740 -0.652720 0.050850 16.377300 -0.000001 -0.000001 6.942480 -6.222210 1.607720 6.456720 -0.000001 -0.000000 -9.580860 -5.872740 0.406702 12.994200 -0.242716 4.980390 -91.933900 7.271290 -75.062800 5.348090 -0.000007 -0.000001 -49.374200 47.048900 -31.205400 24.328600 0.000019 0.000005 13.613900 20.772100 -34.327700 22.291600 -0.000001 0.000005 10.628900 5.299580 0.083968 12.994500 -0.242716 -4.980390 88.486200 10.006000 -81.351600 -5.348130 -0.000001 -0.000004 -55.623400 44.665200 -22.372700 -24.328900 0.000322 -0.000009 2.589120 3.776300 -34.484500 -22.291500 -0.000108 -0.000004 17.495400 5.454810 -4.812490 -2.192480 -6.469440 -0.000000 -174.229000 -10.470500 3.382660 39.081100 -0.000007 -0.000012 -0.158459 0.277841 29.697300 40.985400 -0.000006 -0.000013 -0.245676 5.860240 -71.304800 11.754300 -0.000000 0.000003 -0.000079 -0.000838 -16.609900 -2.192510 6.469440 -0.000001 172.751000 20.709000 -174.565000 -39.081100 -0.002282 -0.040193 -0.186416 0.341922 29.024600 -40.985400 0.000008 0.000006 2.472090 11.246400 -72.033000 -11.754300 -0.000006 -0.000006 -0.003136 -0.042135 -18.286700
0.000000 0.000000 0.000000 0.000000 0.000000 -0.000000 -1.260860 90.735000 2.125810 89.806700 -1.046200 11.672400 15.735700 0.000005 -0.000001 87.383700 82.767500 -87.385700 8.984550 -0.406207 -0.000000 6.684130 -0.658156 0.034476 16.377300 -0.000001 -0.000001 7.911300 -6.407230 1.591730 6.456720 -0.000001 -0.000000 -8.109280 -6.066470 -0.042563 12.994200 -0.242716 4.980390 -91.965000 7.259800 -74.810200 5.348090 -0.000007 -0.000001 -47.382000 44.307700 -32.507900 24.328600 0.000019 0.000005 14.431300 21.213200 -35.419900 22.291600 -0.000001 0.000005 11.217300 5.297050 0.154405 12.994500 -0.242716 -4.980390 88.450100 9.762240 -80.933200 -5.348130 -0.000001 -0.000004 -53.314800 42.827500 -23.930400 -24.328900 0.000322 -0.000009 2.943580 4.143690 -35.445900 -22.291500 -0.000108 -0.000004 18.189200 5.456470 -4.871840 -2.192480 -6.469440 -0.000000 -174.234000 -10.486100 3.408380 39.081100 -0.000007 -0.000012 -0.156579 0.274323 29.717200 40.985400 -0.000006 -0.000013 -0.215877 5.925480 -71.213600 11.754300 -0.000000 0.000003 -0.000084 -0.000885 -16.611600 -2.192510 6.469440 -0.000001 172.764000 20.603400 -174.557000 -39.081100 -0.002282 -0.040193 -0.183095 0.335283 29.071900 -40.985400 0.000008 0.000006 2.459980 11.102800 -71.962000 -11.754300 -0.000006 -0.000006 -0.003135 -0.042116 -18.285900
0.000000 0.000000 0.000000 0.000000 0.000000 -0.000000 -1.251470 90.740300 1.978380 89.826000 -0.998911 11.824600 15.735700 0.000005 -0.000001 87.156600 82.865000 -87.163700 8.984550 -0.406207 -0.000000 6.486730 -0.705650 0.025863 16.377300 -0.000001 -0.000001 8.956050 -6.510230 1.519700 6.456720 -0.000001 -0.000000 -6.437790 -6.203680 -0.509452 12.994200 -0.242716 4.980390 -91.981400 7.187230 -74.542900 5.348090 -0.000007 -0.000001 -45.404900 40.828600 -33.813400 24.328600 0.000019 0.000005 15.116500 21.250000 -36.697500 22.291600 -0.000001 0.000005 11.642200 5.297680 0.137972 12.994500 -0.242716 -4.980390 88.429100 9.452870 -80.520000 -5.348130 -0.000001 -0.000004 -50.700400 40.562900 -25.812000 -24.328900 0.000322 -0.000009 3.023330 4.093010 -36.509900 -22.291500 -0.000108 -0.000004 18.886700 5.458120 -4.932490 -2.192480 -6.469440 -0.000000 -174.265000 -10.426900 3.427070 39.081100 -0.000007 -0.000012 -0.155343 0.271662 29.762200 40.985400 -0.000006 -0.000013 -0.204100 5.902750 -71.132400 11.754300 -0.000000 0.000003 -0.000080 -0.000851 -16.610300 -2.192510 6.469440 -0.000001 172.701000 20.642800 -174.526000 -39.081100 -0.002282 -0.040193 -0.184405 0.336687 29.140600 -40.985400 0.000008 0.000006 2.468630 11.084900 -71.900400 -11.754300 -0.000006 -0.000006 -0.003255 -0.043454 -18.340400
0.000000 0.000000 0.000000 0.000000 0.000000 -0.000000 -1.244820 90.742400 1.840110 89.846700 -0.978005 12.044600 15.735700 0.000005 -0.000001 86.966200 82.951700 -86.976300 8.984550 -0.406207 -0.000000 6.311240 -0.743787 0.020870 16.377300 -0.000001 -0.000001 10.051700 -6.548860 1.535860 6.456720 -0.000001 -0.000000 -4.658620 -6.238400 -1.174990 12.994200 -0.242716 4.980390 -91.972800 7.045360 -74.313900 5.348090 -0.000007 -0.000001 -43.428700 36.746800 -35.259100 24.328600 0.000019 0.000005 15.416900 20.757000 -37.886700 22.291600 -0.000001 0.000005 12.150400 5.297590 0.140002 12.994500 -0.242716 -4.980390 88.434500 9.057880 -80.151500 -5.348130 -0.000001 -0.000004 -48.038700 37.769900 -27.847200 -24.328900 0.000322 -0.000009 2.995590 3.889850 -37.657200 -22.291500 -0.000108 -0.000004 19.530700 5.457650 -4.915060 -2.192480 -6.469440 -0.000000 -174.257000 -10.461600 3.517030 39.081100 -0.000007 -0.000012 -0.152647 0.266333 29.819100 40.985400 -0.000006 -0.000013 -0.169666 5.955590 -71.058800 11.754300 -0.000000 0.000003 -0.000073 -0.000786 -16.607900 -2.192510 6.469440 -0.000001 172.627000 20.630800 -174.436000 -39.081100 -0.002282 -0.040193 -0.184231 0.335235 29.223400 -40.985400 0.000008 0.000006 2.495370 11.099600 -71.851100 -11.754300 -0.000006 -0.000006 -0.003157 -0.042366 -18.296100
0.000000 0.000000 0.000000 0.000000 0.000000 -0.000000 -1.250480 90.745800 1.700580 89.837700 -1.016930 12.263600 15.735700 0.000005 -0.000001 86.761000 83.031400 -86.769700 8.984550 -0.406207 -0.000000 6.149210 -0.785144 0.024802 16.377300 -0.000001 -0.000001 11.305100 -6.476860 1.515640 6.456720 -0.000001 -0.000000 -3.046460 -6.196880 -1.780170 12.994200 -0.242716 4.980390 -91.936500 6.827860 -74.124700 5.348090 -0.000007 -0.000001 -41.571200 32.103400 -36.702500 24.328600 0.000019 0.000005 15.927100 20.470500 -39.213600 22.291600 -0.000001 0.000005 12.674400 5.291920 0.297394 12.994500 -0.242716 -4.980390 88.453300 8.631540 -79.800300 -5.348130 -0.000001 -0.000004 -45.443700 34.350400 -30.004700 -24.328900 0.000322 -0.000009 3.166510 3.951710 -38.764700 -22.291500 -0.000108 -0.000004 19.959800 5.461280 -5.048330 -2.192480 -6.469440 -0.000000 -174.196000 -10.490900 3.627540 39.081100 -0.000007 -0.000012 -0.154682 0.269361 29.867100 40.985400 -0.000006 -0.000013 -0.156626 6.003310 -70.992900 11.754300 -0.000000 0.000003 -0.000081 -0.000856 -16.610500 -2.192510 6.469440 -0.000001 172.592000 20.624600 -174.340000 -39.081100 -0.002282 -0.040193 -0.183152 0.332487 29.283400 -40.985400 0.000008 0.000006 2.530380 11.118100 -71.788100 -11.754300 -0.000006 -0.000006 -0.003210 -0.042952 -18.319900
